<?xml version="1.0" encoding="UTF-8"?>
<svg xmlns="http://www.w3.org/2000/svg" xmlns:xlink="http://www.w3.org/1999/xlink" width="50pt" height="50pt" viewBox="0 0 50 50" version="1.1">
<g id="surface1">
<path style=" stroke:none;fill-rule:nonzero;fill:rgb(0%,0%,0%);fill-opacity:1;" d="M 44 28.894531 C 43.640625 28.894531 43.308594 29.09375 43.136719 29.414062 C 42.15625 31.222656 40.695312 34.128906 40.695312 35.34375 C 40.695312 37.171875 42.175781 38.648438 44 38.648438 C 45.824219 38.648438 47.304688 37.171875 47.304688 35.34375 C 47.304688 34.128906 45.84375 31.222656 44.863281 29.414062 C 44.691406 29.09375 44.363281 28.894531 44 28.894531 Z M 44 28.894531 "/>
<path style=" stroke:none;fill-rule:nonzero;fill:rgb(0%,0%,0%);fill-opacity:1;" d="M 46.136719 0.667969 C 45.957031 0.488281 45.476562 -0.109375 44.738281 0.015625 C 44.414062 0.0703125 43.800781 0.34375 43.53125 0.527344 C 42.890625 0.96875 43.015625 1.746094 43.035156 2.324219 C 43.078125 3.675781 42.976562 4.953125 41.257812 5.769531 C 40.8125 5.984375 40.023438 5.914062 39.238281 5.828125 C 38.703125 5.769531 38.15625 5.714844 37.605469 5.714844 C 36.34375 5.714844 35.265625 6.011719 34.296875 6.625 C 32.617188 7.6875 31.585938 9.261719 31.382812 11.066406 C 31.25 12.253906 31.503906 13.480469 32.089844 14.671875 L 31.554688 14.136719 C 31.320312 13.902344 30.96875 13.757812 30.675781 13.78125 C 30.347656 13.789062 30.035156 13.925781 29.808594 14.167969 L 2.246094 43.921875 C 0.917969 45.351562 0.960938 47.558594 2.34375 48.9375 C 3.027344 49.625 3.933594 50 4.902344 50 C 5.816406 50 6.691406 49.65625 7.367188 49.035156 L 37.113281 21.46875 C 37.355469 21.246094 37.496094 20.933594 37.5 20.605469 C 37.507812 20.277344 37.378906 19.960938 37.148438 19.726562 L 36.242188 18.824219 C 37.125 19.203125 38.078125 19.410156 39.066406 19.410156 C 40.589844 19.410156 42.109375 18.929688 43.457031 18.074219 C 43.152344 18.789062 42.9375 19.4375 42.9375 19.839844 C 42.9375 21.210938 44.050781 22.324219 45.421875 22.324219 C 46.796875 22.324219 47.90625 21.210938 47.90625 19.839844 C 47.90625 18.96875 46.90625 16.941406 46.175781 15.574219 C 48.054688 13.203125 48.617188 10.640625 48.710938 8.730469 C 48.855469 5.59375 47.824219 2.355469 46.136719 0.667969 Z M 5.71875 47.261719 C 5.257812 47.6875 4.492188 47.667969 4.050781 47.230469 C 3.59375 46.769531 3.578125 46.039062 4.019531 45.566406 L 27.816406 19.878906 L 31.402344 23.464844 Z M 36.296875 15.042969 C 35.070312 13.816406 34.464844 12.53125 34.589844 11.421875 C 34.703125 10.386719 35.429688 9.722656 36.019531 9.351562 C 36.476562 9.0625 36.949219 8.9375 37.605469 8.9375 C 38.039062 8.9375 38.46875 8.988281 38.890625 9.035156 C 39.332031 9.085938 39.761719 9.105469 40.179688 9.109375 C 40.507812 9.476562 40.777344 10.105469 40.683594 11.234375 C 40.550781 12.867188 41.636719 14.089844 43.105469 14.210938 C 42.867188 14.460938 42.613281 14.703125 42.324219 14.941406 C 40.445312 16.5 37.839844 16.585938 36.296875 15.042969 Z M 36.296875 15.042969 "/>
</g>
</svg>
