<?xml version="1.0" encoding="UTF-8"?>
<svg xmlns="http://www.w3.org/2000/svg" xmlns:xlink="http://www.w3.org/1999/xlink" width="50pt" height="50pt" viewBox="0 0 50 50" version="1.1">
<g id="surface1">
<path style=" stroke:none;fill-rule:nonzero;fill:rgb(0%,0%,0%);fill-opacity:1;" d="M 18.75 6.25 C 16.449219 6.25 14.582031 8.113281 14.582031 10.417969 L 14.582031 12.5 L 8.332031 12.5 C 6.03125 12.5 4.167969 14.363281 4.167969 16.667969 L 4.167969 39.582031 C 4.167969 41.886719 6.03125 43.75 8.332031 43.75 L 41.667969 43.75 C 43.96875 43.75 45.832031 41.886719 45.832031 39.582031 L 45.832031 16.667969 C 45.832031 14.363281 43.96875 12.5 41.667969 12.5 L 35.417969 12.5 L 35.417969 10.417969 C 35.417969 8.113281 33.550781 6.25 31.25 6.25 Z M 25 16.667969 C 30.742188 16.667969 35.417969 21.339844 35.417969 27.082031 C 35.417969 32.828125 30.742188 37.5 25 37.5 C 19.257812 37.5 14.582031 32.828125 14.582031 27.082031 C 14.582031 21.339844 19.257812 16.667969 25 16.667969 Z M 39.582031 16.667969 C 40.734375 16.667969 41.667969 17.601562 41.667969 18.75 C 41.667969 19.898438 40.734375 20.832031 39.582031 20.832031 C 38.433594 20.832031 37.5 19.898438 37.5 18.75 C 37.5 17.601562 38.433594 16.667969 39.582031 16.667969 Z M 25 20.832031 C 21.546875 20.832031 18.75 23.632812 18.75 27.082031 C 18.75 30.535156 21.546875 33.332031 25 33.332031 C 28.453125 33.332031 31.25 30.535156 31.25 27.082031 C 31.25 23.632812 28.453125 20.832031 25 20.832031 Z M 25 20.832031 "/>
</g>
</svg>
