<?xml version="1.0" encoding="UTF-8"?>
<svg xmlns="http://www.w3.org/2000/svg" xmlns:xlink="http://www.w3.org/1999/xlink" width="50pt" height="50pt" viewBox="0 0 50 50" version="1.1">
<g id="surface1">
<path style=" stroke:none;fill-rule:nonzero;fill:rgb(0%,0%,0%);fill-opacity:1;" d="M 23.71875 0.652344 C 22.167969 0.980469 20.816406 1.804688 19.390625 3.292969 C 18.863281 3.839844 18.15625 4.695312 17.832031 5.191406 C 17.496094 5.6875 17.21875 6.101562 17.199219 6.121094 C 17.191406 6.140625 16.730469 6.050781 16.183594 5.9375 C 15.378906 5.765625 14.871094 5.714844 13.515625 5.714844 C 11.496094 5.707031 10.738281 5.847656 9.402344 6.492188 C 8.644531 6.855469 8.355469 7.066406 7.714844 7.707031 C 7.074219 8.347656 6.863281 8.636719 6.5 9.390625 C 5.859375 10.730469 5.714844 11.488281 5.726562 13.503906 C 5.726562 14.867188 5.773438 15.375 5.945312 16.179688 C 6.0625 16.722656 6.144531 17.171875 6.125 17.191406 C 6.109375 17.199219 5.773438 17.433594 5.378906 17.6875 C 4.386719 18.359375 4.011719 18.664062 3.101562 19.5625 C 1.429688 21.210938 0.5 23.152344 0.5 25 C 0.5 25.671875 0.757812 26.847656 1.042969 27.527344 C 1.726562 29.089844 3.410156 30.964844 5.199219 32.160156 C 5.695312 32.492188 6.105469 32.773438 6.117188 32.78125 C 6.136719 32.789062 6.0625 33.230469 5.957031 33.757812 C 5.695312 35 5.613281 37.058594 5.753906 38.113281 C 6.003906 39.894531 6.59375 41.144531 7.722656 42.277344 C 8.597656 43.152344 9.542969 43.691406 10.886719 44.054688 C 12.003906 44.363281 14.75 44.363281 16.183594 44.046875 C 16.730469 43.929688 17.191406 43.84375 17.199219 43.863281 C 17.21875 43.882812 17.496094 44.292969 17.832031 44.792969 C 19.035156 46.601562 20.960938 48.3125 22.503906 48.964844 C 23.21875 49.261719 24.328125 49.492188 25.027344 49.492188 C 26.179688 49.480469 27.585938 49.023438 28.777344 48.265625 C 29.929688 47.539062 31.851562 45.441406 32.707031 43.996094 C 32.789062 43.84375 32.867188 43.84375 33.804688 44.046875 C 34.648438 44.230469 35.089844 44.265625 36.582031 44.265625 C 38.09375 44.265625 38.464844 44.230469 39.117188 44.054688 C 41.691406 43.355469 43.367188 41.683594 44.066406 39.109375 C 44.238281 38.457031 44.273438 38.082031 44.273438 36.574219 C 44.273438 35.089844 44.234375 34.636719 44.066406 33.804688 C 43.9375 33.257812 43.855469 32.800781 43.875 32.789062 C 43.894531 32.769531 44.304688 32.492188 44.800781 32.160156 C 46.613281 30.953125 48.324219 29.03125 48.972656 27.488281 C 49.261719 26.789062 49.5 25.671875 49.5 24.980469 C 49.5 24.308594 49.242188 23.136719 48.957031 22.453125 C 48.273438 20.894531 46.589844 19.019531 44.800781 17.824219 C 44.304688 17.488281 43.894531 17.210938 43.875 17.191406 C 43.855469 17.179688 43.9375 16.722656 44.054688 16.179688 C 44.371094 14.742188 44.371094 11.996094 44.0625 10.875 C 43.40625 8.472656 41.851562 6.796875 39.585938 6.0625 C 38.15625 5.601562 35.730469 5.542969 33.765625 5.949219 C 33.238281 6.050781 32.800781 6.128906 32.789062 6.109375 C 32.78125 6.101562 32.503906 5.6875 32.167969 5.1875 C 31.382812 4.003906 29.871094 2.441406 28.886719 1.785156 C 27.15625 0.644531 25.46875 0.269531 23.71875 0.652344 Z M 25.917969 2.109375 C 27.179688 2.347656 28.484375 3.105469 29.613281 4.25 C 30.253906 4.910156 31.488281 6.492188 31.402344 6.550781 C 31.382812 6.570312 31.066406 6.683594 30.691406 6.808594 C 29.542969 7.191406 27.6875 8.035156 26.3125 8.777344 L 25 9.496094 L 23.777344 8.828125 C 22.453125 8.109375 20.378906 7.160156 19.308594 6.796875 C 18.941406 6.683594 18.617188 6.570312 18.597656 6.550781 C 18.578125 6.539062 18.761719 6.253906 19 5.917969 C 21.097656 2.980469 23.503906 1.652344 25.917969 2.109375 Z M 15.886719 7.285156 C 16.214844 7.355469 16.480469 7.417969 16.480469 7.449219 C 16.480469 7.46875 16.347656 7.746094 16.195312 8.058594 C 15.535156 9.371094 14.636719 11.832031 14.226562 13.441406 C 14.136719 13.792969 14.011719 14.082031 13.957031 14.082031 C 13.773438 14.082031 11.316406 14.847656 10.359375 15.203125 C 9.859375 15.382812 8.996094 15.746094 8.453125 16.003906 C 7.90625 16.261719 7.4375 16.464844 7.429688 16.445312 C 7.304688 16.320312 7.09375 14.480469 7.101562 13.503906 C 7.101562 12.015625 7.277344 11.210938 7.785156 10.15625 C 8.464844 8.777344 9.6875 7.785156 11.257812 7.332031 C 12.328125 7.019531 14.425781 7 15.886719 7.285156 Z M 38.347656 7.25 C 40.046875 7.582031 41.480469 8.664062 42.214844 10.15625 C 42.722656 11.210938 42.898438 12.015625 42.898438 13.515625 C 42.898438 14.519531 42.695312 16.320312 42.570312 16.457031 C 42.550781 16.472656 42.265625 16.351562 41.941406 16.183594 C 40.628906 15.527344 38.171875 14.625 36.5625 14.226562 L 35.929688 14.0625 L 35.769531 13.429688 C 35.363281 11.832031 34.464844 9.363281 33.804688 8.058594 C 33.652344 7.746094 33.519531 7.46875 33.519531 7.4375 C 33.519531 7.371094 35.242188 7.097656 35.8125 7.066406 C 36.65625 7.039062 37.625 7.105469 38.347656 7.25 Z M 32.742188 9.054688 C 33.25 10.195312 33.824219 11.804688 34.167969 13.007812 C 34.347656 13.640625 34.347656 13.699219 34.207031 13.660156 C 33.996094 13.59375 31.25 13.152344 30.539062 13.066406 C 30.046875 13.019531 29.898438 12.933594 28.894531 12.175781 C 28.292969 11.714844 27.488281 11.132812 27.117188 10.875 L 26.425781 10.40625 L 26.648438 10.234375 C 27.488281 9.59375 31.921875 7.6875 32.136719 7.871094 C 32.207031 7.917969 32.472656 8.453125 32.742188 9.054688 Z M 19.324219 8.292969 C 20.464844 8.730469 22.953125 9.9375 23.363281 10.246094 L 23.574219 10.40625 L 23.058594 10.753906 C 22.769531 10.941406 21.976562 11.515625 21.304688 12.035156 L 20.070312 12.960938 L 18.585938 13.179688 C 17.773438 13.308594 16.777344 13.46875 16.386719 13.542969 C 15.992188 13.621094 15.65625 13.667969 15.652344 13.667969 C 15.652344 13.660156 15.792969 13.152344 15.976562 12.550781 C 16.394531 11.144531 16.863281 9.898438 17.394531 8.761719 C 17.71875 8.058594 17.851562 7.863281 18.003906 7.863281 C 18.109375 7.863281 18.703125 8.054688 19.324219 8.292969 Z M 26.179688 12.023438 C 26.742188 12.425781 27.199219 12.761719 27.199219 12.769531 C 27.199219 12.78125 26.214844 12.789062 25 12.789062 C 23.796875 12.789062 22.800781 12.78125 22.800781 12.769531 C 22.800781 12.683594 24.875 11.304688 25 11.304688 C 25.085938 11.304688 25.613281 11.628906 26.179688 12.023438 Z M 29.050781 14.425781 C 29.316406 14.472656 29.613281 14.675781 30.246094 15.222656 C 31.621094 16.425781 33.097656 17.878906 34.339844 19.269531 L 35.507812 20.589844 L 35.59375 21.230469 C 35.691406 22.074219 35.691406 27.910156 35.59375 28.742188 C 35.519531 29.386719 35.496094 29.402344 34.683594 30.324219 C 33.632812 31.527344 31.535156 33.621094 30.332031 34.675781 C 29.410156 35.492188 29.390625 35.507812 28.75 35.585938 C 27.917969 35.679688 22.082031 35.679688 21.25 35.585938 C 20.625 35.507812 20.578125 35.480469 19.765625 34.773438 C 18.683594 33.84375 16.148438 31.308594 15.21875 30.222656 C 14.511719 29.414062 14.480469 29.363281 14.402344 28.742188 C 14.367188 28.386719 14.328125 26.703125 14.328125 24.988281 C 14.328125 23.277344 14.367188 21.59375 14.402344 21.238281 C 14.480469 20.617188 14.511719 20.570312 15.21875 19.753906 C 16.691406 18.074219 19.621094 15.210938 20.5 14.585938 C 20.617188 14.511719 21.105469 14.417969 21.679688 14.367188 C 22.691406 14.28125 28.417969 14.328125 29.050781 14.425781 Z M 16.386719 16.332031 C 15.523438 17.191406 14.808594 17.890625 14.796875 17.878906 C 14.769531 17.863281 15.238281 15.296875 15.265625 15.257812 C 15.296875 15.238281 17.699219 14.777344 17.871094 14.757812 C 17.917969 14.753906 17.257812 15.457031 16.386719 16.332031 Z M 33.554688 15.039062 C 34.128906 15.144531 34.636719 15.257812 34.683594 15.304688 C 34.761719 15.382812 35.261719 17.910156 35.203125 17.910156 C 35.191406 17.910156 34.480469 17.199219 33.621094 16.339844 C 32.492188 15.210938 32.121094 14.777344 32.28125 14.808594 C 32.410156 14.828125 32.980469 14.933594 33.554688 15.039062 Z M 13.464844 16.902344 C 13.34375 17.585938 13.191406 18.5625 13.132812 19.074219 L 13.019531 19.996094 L 12.183594 21.097656 C 11.726562 21.699219 11.144531 22.503906 10.886719 22.878906 L 10.414062 23.566406 L 10.253906 23.347656 C 9.707031 22.628906 7.871094 18.492188 7.871094 17.996094 C 7.871094 17.679688 10.128906 16.703125 12.558594 15.964844 C 13.160156 15.785156 13.667969 15.640625 13.667969 15.640625 C 13.679688 15.652344 13.582031 16.214844 13.464844 16.902344 Z M 38.761719 16.386719 C 40.140625 16.863281 42.035156 17.707031 42.101562 17.878906 C 42.1875 18.109375 41.566406 19.738281 40.703125 21.496094 C 40.234375 22.445312 39.792969 23.296875 39.71875 23.390625 C 39.59375 23.554688 39.558594 23.519531 39.113281 22.878906 C 38.847656 22.492188 38.265625 21.691406 37.816406 21.097656 C 37.058594 20.101562 36.980469 19.96875 36.925781 19.460938 C 36.839844 18.738281 36.394531 15.996094 36.332031 15.785156 C 36.292969 15.640625 36.351562 15.640625 36.980469 15.824219 C 37.367188 15.925781 38.167969 16.183594 38.761719 16.386719 Z M 6.808594 19.277344 C 7.152344 20.332031 8.089844 22.410156 8.835938 23.777344 L 9.503906 24.988281 L 8.835938 26.21875 C 8.117188 27.527344 7.179688 29.605469 6.808594 30.6875 C 6.691406 31.046875 6.578125 31.375 6.558594 31.394531 C 6.5 31.480469 4.921875 30.246094 4.261719 29.605469 C 1.917969 27.296875 1.417969 24.695312 2.835938 22.175781 C 3.207031 21.527344 3.851562 20.722656 4.453125 20.179688 C 4.871094 19.785156 6.441406 18.578125 6.53125 18.578125 C 6.558594 18.578125 6.683594 18.894531 6.808594 19.277344 Z M 44.101562 19.011719 C 48.582031 22.207031 49.191406 26.199219 45.738281 29.605469 C 45.078125 30.253906 43.5 31.480469 43.429688 31.394531 C 43.425781 31.375 43.261719 30.945312 43.089844 30.445312 C 42.5625 28.933594 41.382812 26.472656 40.570312 25.183594 C 40.484375 25.027344 40.484375 24.953125 40.589844 24.78125 C 40.964844 24.1875 41.882812 22.425781 42.253906 21.59375 C 42.707031 20.578125 43.375 18.847656 43.375 18.675781 C 43.375 18.511719 43.460938 18.5625 44.101562 19.011719 Z M 12.800781 24.988281 C 12.800781 26.199219 12.789062 27.195312 12.78125 27.195312 C 12.691406 27.195312 11.316406 25.117188 11.316406 24.988281 C 11.316406 24.867188 12.691406 22.789062 12.78125 22.789062 C 12.789062 22.789062 12.800781 23.777344 12.800781 24.988281 Z M 38.15625 24.101562 C 38.449219 24.519531 38.683594 24.925781 38.683594 24.988281 C 38.683594 25.105469 37.816406 26.433594 37.421875 26.933594 L 37.199219 27.199219 L 37.199219 22.78125 L 37.421875 23.046875 C 37.535156 23.191406 37.871094 23.671875 38.15625 24.101562 Z M 11.191406 27.527344 C 11.5625 28.054688 12.128906 28.816406 12.445312 29.230469 C 13.007812 29.976562 13.019531 29.976562 13.132812 30.90625 C 13.25 31.882812 13.582031 33.917969 13.667969 34.199219 C 13.707031 34.34375 13.648438 34.34375 13.019531 34.160156 C 11.257812 33.660156 8.117188 32.429688 7.878906 32.128906 C 7.707031 31.921875 9.113281 28.589844 10.082031 26.914062 C 10.242188 26.636719 10.40625 26.445312 10.441406 26.484375 C 10.480469 26.535156 10.816406 27.003906 11.191406 27.527344 Z M 40.121094 27.289062 C 40.6875 28.308594 41.433594 29.949219 41.84375 31.097656 L 42.207031 32.082031 L 41.996094 32.214844 C 41.355469 32.636719 38.636719 33.691406 36.980469 34.160156 C 36.351562 34.34375 36.292969 34.34375 36.332031 34.195312 C 36.394531 33.988281 36.839844 31.238281 36.925781 30.523438 C 36.980469 30.015625 37.058594 29.882812 37.816406 28.886719 C 38.265625 28.292969 38.847656 27.5 39.109375 27.117188 C 39.375 26.730469 39.613281 26.457031 39.652344 26.496094 C 39.691406 26.542969 39.902344 26.894531 40.121094 27.289062 Z M 16.378906 33.644531 C 17.507812 34.773438 17.878906 35.203125 17.71875 35.175781 C 16.664062 35.011719 15.378906 34.742188 15.316406 34.675781 C 15.238281 34.597656 14.738281 32.074219 14.796875 32.074219 C 14.808594 32.074219 15.519531 32.78125 16.378906 33.644531 Z M 35.183594 32.285156 C 35.019531 33.296875 34.753906 34.609375 34.683594 34.675781 C 34.621094 34.742188 33.335938 35.011719 32.28125 35.171875 C 32.121094 35.203125 32.492188 34.773438 33.621094 33.644531 C 34.484375 32.78125 35.191406 32.074219 35.203125 32.074219 C 35.210938 32.074219 35.203125 32.167969 35.183594 32.285156 Z M 8.453125 33.976562 C 9.667969 34.550781 11.5625 35.242188 12.996094 35.636719 L 14.074219 35.929688 L 14.234375 36.5625 C 14.636719 38.160156 15.535156 40.617188 16.195312 41.929688 C 16.355469 42.253906 16.480469 42.542969 16.464844 42.5625 C 16.328125 42.683594 14.53125 42.886719 13.527344 42.886719 C 12.019531 42.886719 11.21875 42.714844 10.167969 42.207031 C 8.683594 41.472656 7.609375 40.054688 7.246094 38.34375 C 7.058594 37.421875 7.058594 35.441406 7.253906 34.363281 C 7.34375 33.890625 7.417969 33.507812 7.4375 33.507812 C 7.449219 33.507812 7.90625 33.722656 8.453125 33.976562 Z M 42.714844 34.152344 C 42.925781 35.167969 42.898438 37.996094 42.667969 38.722656 C 42.0625 40.6875 40.78125 42 38.839844 42.621094 C 37.988281 42.898438 35.699219 42.964844 34.476562 42.753906 C 33.988281 42.667969 33.566406 42.582031 33.542969 42.5625 C 33.527344 42.550781 33.726562 42.082031 33.988281 41.535156 C 34.558594 40.324219 35.25 38.425781 35.640625 37.003906 L 35.9375 35.929688 L 37.011719 35.632812 C 38.457031 35.242188 40.351562 34.542969 41.507812 33.988281 C 42.035156 33.726562 42.492188 33.519531 42.523438 33.519531 C 42.5625 33.507812 42.644531 33.796875 42.714844 34.152344 Z M 17.4375 36.609375 C 18.253906 36.746094 19.167969 36.878906 19.46875 36.917969 C 19.972656 36.972656 20.109375 37.050781 21.105469 37.804688 C 21.699219 38.253906 22.503906 38.839844 22.882812 39.109375 C 23.527344 39.546875 23.566406 39.585938 23.402344 39.710938 C 23.308594 39.789062 22.453125 40.226562 21.507812 40.695312 C 19.746094 41.554688 18.117188 42.179688 17.890625 42.09375 C 17.621094 41.988281 16.378906 38.894531 15.832031 36.972656 C 15.652344 36.339844 15.652344 36.285156 15.792969 36.320312 C 15.878906 36.351562 16.628906 36.484375 17.4375 36.609375 Z M 34.167969 36.972656 C 33.621094 38.894531 32.378906 41.988281 32.109375 42.09375 C 31.929688 42.171875 30.4375 41.625 29.105469 41.011719 C 27.984375 40.484375 26.648438 39.789062 26.503906 39.640625 C 26.464844 39.605469 26.742188 39.363281 27.125 39.097656 C 27.507812 38.839844 28.300781 38.253906 28.894531 37.804688 L 29.96875 36.980469 L 31.191406 36.820312 C 31.871094 36.726562 32.828125 36.574219 33.328125 36.484375 C 33.824219 36.390625 34.265625 36.300781 34.304688 36.296875 C 34.328125 36.296875 34.273438 36.601562 34.167969 36.972656 Z M 27.144531 37.257812 C 27.058594 37.394531 25.105469 38.679688 24.980469 38.679688 C 24.867188 38.679688 22.800781 37.289062 22.800781 37.214844 C 22.800781 37.203125 23.785156 37.195312 24.988281 37.195312 C 26.199219 37.195312 27.160156 37.222656 27.144531 37.257812 Z M 25.824219 40.933594 C 27.296875 41.777344 30.207031 43.089844 31.152344 43.316406 C 31.296875 43.355469 31.414062 43.414062 31.414062 43.433594 C 31.414062 43.597656 30.214844 45.105469 29.613281 45.730469 C 28.054688 47.308594 26.351562 48.058594 24.617188 47.933594 C 22.617188 47.78125 20.722656 46.488281 19.019531 44.09375 C 18.777344 43.761719 18.585938 43.464844 18.585938 43.433594 C 18.585938 43.40625 18.703125 43.355469 18.855469 43.316406 C 19.84375 43.078125 23.429688 41.441406 24.480469 40.746094 C 24.695312 40.617188 24.90625 40.503906 24.960938 40.503906 C 25.019531 40.496094 25.402344 40.695312 25.824219 40.933594 Z M 25.824219 40.933594 "/>
<path style=" stroke:none;fill-rule:nonzero;fill:rgb(0%,0%,0%);fill-opacity:1;" d="M 10.453125 11.210938 L 10.453125 11.976562 L 11.980469 11.976562 L 11.980469 10.445312 L 10.453125 10.445312 Z M 10.453125 11.210938 "/>
<path style=" stroke:none;fill-rule:nonzero;fill:rgb(0%,0%,0%);fill-opacity:1;" d="M 38.015625 11.210938 L 38.015625 11.976562 L 39.546875 11.976562 L 39.546875 10.445312 L 38.015625 10.445312 Z M 38.015625 11.210938 "/>
<path style=" stroke:none;fill-rule:nonzero;fill:rgb(0%,0%,0%);fill-opacity:1;" d="M 23.277344 17.476562 C 22.175781 17.648438 21.046875 18.023438 20.359375 18.433594 C 19.621094 18.878906 19.308594 19.183594 19.066406 19.6875 C 18.875 20.070312 18.875 20.234375 18.894531 25.113281 L 18.921875 30.140625 L 19.207031 30.558594 C 20.089844 31.804688 22.332031 32.601562 25 32.601562 C 27.667969 32.601562 29.910156 31.804688 30.792969 30.558594 L 31.078125 30.140625 L 31.105469 25.113281 C 31.121094 20.234375 31.121094 20.070312 30.933594 19.6875 C 30.128906 18.015625 26.511719 16.972656 23.277344 17.476562 Z M 27.660156 19.152344 C 28.65625 19.394531 29.394531 19.816406 29.539062 20.234375 C 29.738281 20.792969 28.90625 21.363281 27.460938 21.699219 C 26.351562 21.957031 23.648438 21.957031 22.558594 21.699219 C 21.257812 21.402344 20.40625 20.886719 20.40625 20.398438 C 20.40625 19.910156 21.277344 19.375 22.511719 19.113281 C 23.605469 18.886719 23.699219 18.886719 25.285156 18.917969 C 26.417969 18.933594 26.980469 18.992188 27.660156 19.152344 Z M 22.800781 23.230469 C 23.351562 23.355469 24.050781 23.402344 25 23.402344 C 26.597656 23.410156 27.574219 23.238281 28.808594 22.75 L 29.59375 22.433594 L 29.59375 23.03125 C 29.59375 23.757812 29.421875 24.011719 28.703125 24.347656 C 27.765625 24.800781 26.839844 24.945312 25 24.945312 C 23.164062 24.945312 22.234375 24.800781 21.296875 24.347656 C 20.578125 24.011719 20.40625 23.757812 20.40625 23.03125 L 20.40625 22.433594 L 21.199219 22.75 C 21.628906 22.921875 22.351562 23.144531 22.800781 23.230469 Z M 21.957031 26.082031 C 24.1875 26.726562 26.761719 26.628906 28.808594 25.8125 L 29.59375 25.496094 L 29.59375 26.089844 C 29.59375 26.820312 29.421875 27.078125 28.703125 27.410156 C 27.765625 27.863281 26.839844 28.003906 25 28.003906 C 23.164062 28.003906 22.234375 27.863281 21.296875 27.410156 C 20.578125 27.078125 20.40625 26.820312 20.40625 26.070312 L 20.40625 25.46875 L 20.78125 25.660156 C 20.988281 25.765625 21.515625 25.957031 21.957031 26.082031 Z M 22.800781 29.363281 C 23.363281 29.480469 24.035156 29.539062 25 29.539062 C 26.597656 29.539062 27.574219 29.363281 28.808594 28.878906 L 29.59375 28.5625 L 29.59375 29.152344 C 29.59375 29.882812 29.421875 30.140625 28.703125 30.476562 C 27.765625 30.925781 26.839844 31.066406 25 31.066406 C 23.164062 31.066406 22.234375 30.925781 21.296875 30.476562 C 20.578125 30.140625 20.40625 29.882812 20.40625 29.152344 L 20.40625 28.5625 L 21.199219 28.878906 C 21.628906 29.050781 22.351562 29.269531 22.800781 29.363281 Z M 22.800781 29.363281 "/>
<path style=" stroke:none;fill-rule:nonzero;fill:rgb(0%,0%,0%);fill-opacity:1;" d="M 10.453125 38.773438 L 10.453125 39.539062 L 11.980469 39.539062 L 11.980469 38.007812 L 10.453125 38.007812 Z M 10.453125 38.773438 "/>
<path style=" stroke:none;fill-rule:nonzero;fill:rgb(0%,0%,0%);fill-opacity:1;" d="M 38.015625 38.773438 L 38.015625 39.539062 L 39.546875 39.539062 L 39.546875 38.007812 L 38.015625 38.007812 Z M 38.015625 38.773438 "/>
</g>
</svg>
