<?xml version="1.0" encoding="UTF-8"?>
<svg xmlns="http://www.w3.org/2000/svg" xmlns:xlink="http://www.w3.org/1999/xlink" width="50pt" height="50pt" viewBox="0 0 50 50" version="1.1">
<g id="surface1">
<path style=" stroke:none;fill-rule:nonzero;fill:rgb(0%,0%,0%);fill-opacity:1;" d="M 44.855469 38.550781 C 47.691406 38.550781 50 36.242188 50 33.40625 C 50 30.652344 47.824219 28.394531 45.097656 28.269531 L 45.097656 24.050781 C 45.097656 23.375 44.550781 22.828125 43.871094 22.828125 L 38.480469 22.828125 C 37.804688 22.828125 37.253906 23.375 37.253906 24.050781 L 37.253906 28.261719 L 18.78125 28.261719 L 18.78125 22.363281 C 19.921875 21.296875 20.636719 19.777344 20.636719 18.09375 C 20.636719 15.96875 19.496094 14.101562 17.796875 13.074219 L 16.640625 10.976562 L 21.265625 10.976562 C 21.941406 10.976562 22.488281 10.429688 22.488281 9.753906 L 22.488281 9.179688 L 30.523438 9.179688 L 30.523438 11.277344 L 27.722656 11.277344 C 26.761719 11.277344 25.886719 11.765625 25.378906 12.585938 C 24.875 13.402344 24.828125 14.40625 25.257812 15.265625 L 26.894531 18.535156 C 27.125 19 27.617188 19.253906 28.105469 19.207031 L 28.105469 21.210938 C 28.105469 21.886719 28.652344 22.433594 29.332031 22.433594 L 34.722656 22.433594 C 35.398438 22.433594 35.949219 21.886719 35.949219 21.210938 L 35.949219 19.210938 C 35.960938 19.210938 35.976562 19.214844 35.992188 19.214844 C 36.441406 19.214844 36.875 18.964844 37.089844 18.535156 L 38.726562 15.265625 C 39.15625 14.40625 39.109375 13.402344 38.605469 12.585938 C 38.097656 11.765625 37.222656 11.277344 36.261719 11.277344 L 32.972656 11.277344 L 32.972656 8.9375 C 34.179688 8.453125 35.035156 7.269531 35.035156 5.890625 C 35.035156 4.117188 33.628906 2.671875 31.875 2.605469 C 31.832031 2.601562 22.488281 2.601562 22.488281 2.601562 L 22.488281 2.335938 C 22.488281 1.660156 21.941406 1.113281 21.265625 1.113281 L 8.320312 1.113281 C 7.484375 1.105469 6.65625 1.3125 5.90625 1.726562 C 3.523438 3.039062 2.65625 6.042969 3.96875 8.425781 L 8.949219 17.464844 C 8.929688 17.671875 8.914062 17.882812 8.914062 18.09375 C 8.914062 18.867188 9.066406 19.605469 9.339844 20.28125 C 9.269531 20.347656 3.050781 28.710938 3.050781 28.710938 C 1.253906 29.511719 0 31.316406 0 33.40625 C 0 36.242188 2.308594 38.550781 5.144531 38.550781 L 6.582031 38.550781 L 6.582031 46.4375 L 5.546875 46.4375 C 4.871094 46.4375 4.324219 46.984375 4.324219 47.664062 C 4.324219 48.339844 4.871094 48.886719 5.546875 48.886719 L 10.070312 48.886719 C 10.746094 48.886719 11.292969 48.339844 11.292969 47.664062 C 11.292969 46.984375 10.746094 46.4375 10.070312 46.4375 L 9.035156 46.4375 L 9.035156 38.550781 L 40.964844 38.550781 L 40.964844 46.4375 L 39.929688 46.4375 C 39.253906 46.4375 38.703125 46.984375 38.703125 47.664062 C 38.703125 48.339844 39.253906 48.886719 39.929688 48.886719 L 44.449219 48.886719 C 45.128906 48.886719 45.675781 48.339844 45.675781 47.664062 C 45.675781 46.984375 45.128906 46.4375 44.449219 46.4375 L 43.414062 46.4375 L 43.414062 38.550781 Z M 33.496094 19.984375 L 30.554688 19.984375 L 30.554688 17.042969 L 33.496094 17.042969 Z M 36.519531 13.875 C 36.558594 13.9375 36.59375 14.042969 36.53125 14.167969 L 35.890625 15.453125 C 35.734375 14.953125 35.273438 14.59375 34.722656 14.59375 L 29.332031 14.59375 C 28.75 14.59375 28.261719 14.996094 28.136719 15.542969 L 27.449219 14.167969 C 27.386719 14.042969 27.421875 13.9375 27.464844 13.875 C 27.503906 13.808594 27.582031 13.730469 27.722656 13.730469 L 36.261719 13.730469 C 36.402344 13.730469 36.480469 13.808594 36.519531 13.875 Z M 39.707031 25.277344 L 42.648438 25.277344 L 42.648438 28.21875 L 39.707031 28.21875 Z M 10.800781 22.394531 C 11.847656 23.363281 13.242188 23.953125 14.777344 23.953125 C 15.3125 23.953125 15.835938 23.878906 16.332031 23.742188 L 16.332031 28.261719 L 6.636719 28.261719 Z M 18.183594 18.09375 C 18.183594 19.972656 16.65625 21.503906 14.777344 21.503906 C 12.894531 21.503906 11.367188 19.972656 11.367188 18.09375 C 11.367188 16.214844 12.894531 14.683594 14.777344 14.683594 C 16.65625 14.683594 18.183594 16.214844 18.183594 18.09375 Z M 30.910156 5.890625 C 30.910156 5.425781 31.285156 5.050781 31.746094 5.050781 C 32.210938 5.050781 32.585938 5.425781 32.585938 5.890625 C 32.585938 6.351562 32.210938 6.726562 31.746094 6.726562 C 31.285156 6.726562 30.910156 6.351562 30.910156 5.890625 Z M 28.570312 5.050781 C 28.5 5.320312 28.457031 5.597656 28.457031 5.890625 C 28.457031 6.179688 28.5 6.460938 28.570312 6.726562 L 22.488281 6.726562 L 22.488281 5.050781 Z M 20.039062 8.527344 L 15.289062 8.527344 C 15.289062 8.527344 12.570312 3.597656 12.550781 3.5625 L 20.039062 3.5625 Z M 6.113281 7.242188 C 5.792969 6.664062 5.71875 5.992188 5.902344 5.355469 C 6.089844 4.71875 6.507812 4.191406 7.089844 3.871094 C 7.460938 3.667969 7.871094 3.5625 8.285156 3.5625 C 8.515625 3.5625 8.75 3.59375 8.976562 3.660156 C 9.613281 3.84375 10.140625 4.265625 10.460938 4.847656 L 14.539062 12.242188 C 12.746094 12.3125 11.15625 13.195312 10.128906 14.527344 Z M 2.449219 33.40625 C 2.449219 31.921875 3.660156 30.714844 5.144531 30.714844 L 44.855469 30.714844 C 46.339844 30.714844 47.550781 31.921875 47.550781 33.40625 C 47.550781 34.890625 46.339844 36.101562 44.855469 36.101562 L 5.144531 36.101562 C 3.660156 36.101562 2.449219 34.890625 2.449219 33.40625 Z M 2.449219 33.40625 "/>
<path style=" stroke:none;fill-rule:nonzero;fill:rgb(0%,0%,0%);fill-opacity:1;" d="M 14.015625 31.617188 C 13.027344 31.617188 12.226562 32.417969 12.226562 33.40625 C 12.226562 34.394531 13.027344 35.199219 14.015625 35.199219 C 15.003906 35.199219 15.804688 34.394531 15.804688 33.40625 C 15.804688 32.417969 15.003906 31.617188 14.015625 31.617188 Z M 14.015625 34.066406 C 13.652344 34.066406 13.355469 33.769531 13.355469 33.40625 C 13.355469 33.042969 13.652344 32.746094 14.015625 32.746094 C 14.378906 32.746094 14.675781 33.042969 14.675781 33.40625 C 14.675781 33.769531 14.378906 34.066406 14.015625 34.066406 Z M 14.015625 34.066406 "/>
<path style=" stroke:none;fill-rule:nonzero;fill:rgb(0%,0%,0%);fill-opacity:1;" d="M 6.691406 31.617188 C 5.707031 31.617188 4.902344 32.417969 4.902344 33.40625 C 4.902344 34.394531 5.703125 35.199219 6.691406 35.199219 C 7.679688 35.199219 8.484375 34.394531 8.484375 33.40625 C 8.484375 32.417969 7.679688 31.617188 6.691406 31.617188 Z M 6.691406 34.066406 C 6.328125 34.066406 6.03125 33.769531 6.03125 33.40625 C 6.03125 33.042969 6.328125 32.746094 6.691406 32.746094 C 7.054688 32.746094 7.351562 33.042969 7.351562 33.40625 C 7.351562 33.769531 7.054688 34.066406 6.691406 34.066406 Z M 6.691406 34.066406 "/>
<path style=" stroke:none;fill-rule:nonzero;fill:rgb(0%,0%,0%);fill-opacity:1;" d="M 21.339844 31.617188 C 20.351562 31.617188 19.546875 32.417969 19.546875 33.40625 C 19.546875 34.394531 20.351562 35.199219 21.339844 35.199219 C 22.324219 35.199219 23.128906 34.394531 23.128906 33.40625 C 23.128906 32.417969 22.324219 31.617188 21.339844 31.617188 Z M 21.339844 34.066406 C 20.972656 34.066406 20.679688 33.769531 20.679688 33.40625 C 20.679688 33.042969 20.972656 32.746094 21.339844 32.746094 C 21.703125 32.746094 22 33.042969 22 33.40625 C 22 33.769531 21.703125 34.066406 21.339844 34.066406 Z M 21.339844 34.066406 "/>
<path style=" stroke:none;fill-rule:nonzero;fill:rgb(0%,0%,0%);fill-opacity:1;" d="M 35.984375 31.617188 C 34.996094 31.617188 34.195312 32.417969 34.195312 33.40625 C 34.195312 34.394531 34.996094 35.199219 35.984375 35.199219 C 36.972656 35.199219 37.773438 34.394531 37.773438 33.40625 C 37.773438 32.417969 36.972656 31.617188 35.984375 31.617188 Z M 35.984375 34.066406 C 35.621094 34.066406 35.324219 33.769531 35.324219 33.40625 C 35.324219 33.042969 35.621094 32.746094 35.984375 32.746094 C 36.347656 32.746094 36.644531 33.042969 36.644531 33.40625 C 36.644531 33.769531 36.347656 34.066406 35.984375 34.066406 Z M 35.984375 34.066406 "/>
<path style=" stroke:none;fill-rule:nonzero;fill:rgb(0%,0%,0%);fill-opacity:1;" d="M 43.308594 31.617188 C 42.320312 31.617188 41.515625 32.417969 41.515625 33.40625 C 41.515625 34.394531 42.320312 35.199219 43.308594 35.199219 C 44.292969 35.199219 45.097656 34.394531 45.097656 33.40625 C 45.097656 32.417969 44.292969 31.617188 43.308594 31.617188 Z M 43.308594 34.066406 C 42.945312 34.066406 42.648438 33.769531 42.648438 33.40625 C 42.648438 33.042969 42.945312 32.746094 43.308594 32.746094 C 43.671875 32.746094 43.96875 33.042969 43.96875 33.40625 C 43.96875 33.769531 43.671875 34.066406 43.308594 34.066406 Z M 43.308594 34.066406 "/>
<path style=" stroke:none;fill-rule:nonzero;fill:rgb(0%,0%,0%);fill-opacity:1;" d="M 28.660156 31.617188 C 27.675781 31.617188 26.871094 32.417969 26.871094 33.40625 C 26.871094 34.394531 27.675781 35.199219 28.660156 35.199219 C 29.648438 35.199219 30.453125 34.394531 30.453125 33.40625 C 30.453125 32.417969 29.648438 31.617188 28.660156 31.617188 Z M 28.660156 34.066406 C 28.296875 34.066406 28 33.769531 28 33.40625 C 28 33.042969 28.296875 32.746094 28.660156 32.746094 C 29.027344 32.746094 29.320312 33.042969 29.320312 33.40625 C 29.320312 33.769531 29.027344 34.066406 28.660156 34.066406 Z M 28.660156 34.066406 "/>
</g>
</svg>
