<?xml version="1.0" encoding="UTF-8"?>
<svg xmlns="http://www.w3.org/2000/svg" xmlns:xlink="http://www.w3.org/1999/xlink" width="50pt" height="50pt" viewBox="0 0 50 50" version="1.1">
<g id="surface1">
<path style=" stroke:none;fill-rule:nonzero;fill:rgb(0%,0%,0%);fill-opacity:1;" d="M 6.238281 0.546875 C 4.816406 0.804688 3.648438 1.441406 2.535156 2.550781 C 1.621094 3.472656 1.125 4.261719 0.738281 5.421875 C 0.527344 6.054688 0.5 6.332031 0.5 7.359375 C 0.5 8.734375 0.691406 9.511719 1.34375 10.691406 C 1.832031 11.554688 3.148438 12.867188 4.011719 13.359375 C 5.183594 14 5.96875 14.203125 7.34375 14.210938 C 8.453125 14.210938 8.609375 14.183594 9.40625 13.90625 C 9.886719 13.734375 10.316406 13.578125 10.382812 13.570312 C 10.480469 13.550781 14.828125 20.039062 14.828125 20.199219 C 14.828125 20.238281 14.433594 20.46875 13.953125 20.710938 L 13.070312 21.140625 L 12.199219 20.265625 C 11.226562 19.289062 10.46875 18.808594 9.28125 18.414062 C 8.648438 18.203125 8.367188 18.175781 7.339844 18.175781 C 5.96875 18.175781 5.191406 18.367188 4.011719 19.019531 C 3.148438 19.507812 1.832031 20.824219 1.34375 21.6875 C 0.691406 22.867188 0.5 23.644531 0.5 25.019531 C 0.5 26.390625 0.691406 27.167969 1.34375 28.347656 C 1.835938 29.210938 3.148438 30.527344 4.011719 31.015625 C 5.191406 31.667969 5.96875 31.859375 7.34375 31.859375 C 8.378906 31.859375 8.648438 31.832031 9.308594 31.609375 C 10.453125 31.238281 11.21875 30.746094 12.207031 29.757812 L 13.089844 28.886719 L 13.953125 29.328125 C 14.433594 29.566406 14.828125 29.796875 14.828125 29.835938 C 14.828125 30 10.480469 36.484375 10.375 36.464844 C 10.316406 36.457031 9.886719 36.304688 9.40625 36.128906 C 8.609375 35.851562 8.457031 35.824219 7.34375 35.824219 C 5.96875 35.832031 5.183594 36.035156 4.011719 36.675781 C 3.148438 37.167969 1.832031 38.480469 1.34375 39.34375 C 0.691406 40.527344 0.5 41.304688 0.5 42.675781 C 0.5 44.046875 0.691406 44.824219 1.34375 46.003906 C 1.832031 46.867188 3.148438 48.183594 4.011719 48.671875 C 5.191406 49.324219 5.96875 49.519531 7.34375 49.519531 C 8.378906 49.519531 8.648438 49.488281 9.308594 49.269531 C 10.421875 48.902344 11.21875 48.394531 12.140625 47.472656 C 13.0625 46.554688 13.570312 45.757812 13.933594 44.644531 C 14.144531 43.992188 14.183594 43.691406 14.195312 42.722656 C 14.195312 41.878906 14.15625 41.417969 14.03125 41.003906 C 13.933594 40.699219 13.878906 40.429688 13.898438 40.410156 C 13.914062 40.382812 15.117188 39.804688 16.554688 39.113281 L 19.164062 37.859375 L 19.308594 38.089844 C 19.675781 38.625 21.054688 39.882812 21.671875 40.226562 C 22.839844 40.882812 23.628906 41.074219 25 41.074219 C 26.035156 41.074219 26.304688 41.042969 26.96875 40.824219 C 28.082031 40.460938 28.878906 39.949219 29.796875 39.027344 C 30.71875 38.109375 31.226562 37.3125 31.59375 36.199219 C 31.8125 35.535156 31.84375 35.265625 31.84375 34.230469 C 31.84375 33.269531 31.804688 32.90625 31.640625 32.40625 C 31.527344 32.070312 31.46875 31.753906 31.507812 31.714844 C 31.546875 31.6875 32.773438 31.023438 34.242188 30.265625 L 36.910156 28.875 L 37.792969 29.757812 C 38.773438 30.746094 39.519531 31.21875 40.71875 31.621094 C 41.363281 31.832031 41.621094 31.871094 42.65625 31.871094 C 43.695312 31.859375 43.964844 31.832031 44.625 31.609375 C 45.738281 31.246094 46.535156 30.738281 47.457031 29.816406 C 48.378906 28.894531 48.886719 28.097656 49.25 26.984375 C 49.472656 26.324219 49.5 26.054688 49.5 25.015625 C 49.5 23.644531 49.308594 22.867188 48.65625 21.6875 C 48.167969 20.824219 46.851562 19.507812 45.988281 19.019531 C 44.816406 18.375 44.03125 18.175781 42.65625 18.164062 C 41.621094 18.164062 41.363281 18.203125 40.71875 18.414062 C 39.519531 18.816406 38.773438 19.289062 37.792969 20.265625 L 36.910156 21.160156 L 34.242188 19.769531 C 32.773438 19 31.546875 18.347656 31.507812 18.308594 C 31.46875 18.28125 31.527344 17.964844 31.640625 17.628906 C 31.957031 16.667969 31.9375 14.863281 31.601562 13.867188 C 31.21875 12.707031 30.71875 11.910156 29.808594 10.996094 C 28.886719 10.085938 28.097656 9.585938 26.9375 9.203125 C 26.304688 9 26.015625 8.960938 25 8.953125 C 23.964844 8.953125 23.703125 8.992188 23.0625 9.203125 C 21.929688 9.578125 21.105469 10.085938 20.238281 10.949219 C 19.808594 11.382812 19.394531 11.824219 19.320312 11.945312 L 19.164062 12.167969 L 16.554688 10.921875 C 15.117188 10.230469 13.914062 9.652344 13.898438 9.625 C 13.878906 9.605469 13.933594 9.335938 14.03125 9.03125 C 14.300781 8.136719 14.261719 6.382812 13.945312 5.421875 C 13.558594 4.261719 13.0625 3.472656 12.148438 2.550781 C 11.226562 1.628906 10.421875 1.132812 9.28125 0.765625 C 8.457031 0.507812 7.027344 0.402344 6.238281 0.546875 Z M 8.457031 2.09375 C 9.855469 2.339844 11.382812 3.433594 12.027344 4.65625 C 12.5625 5.679688 12.667969 6.152344 12.660156 7.410156 C 12.648438 9.210938 12.898438 9.175781 9.992188 7.78125 C 8.617188 7.128906 7.398438 6.59375 7.273438 6.59375 C 6.96875 6.59375 6.574219 7.003906 6.574219 7.324219 C 6.574219 7.496094 7.074219 8.347656 8.089844 9.886719 C 8.914062 11.152344 9.585938 12.207031 9.578125 12.246094 C 9.570312 12.273438 9.339844 12.390625 9.050781 12.484375 C 8.332031 12.753906 6.460938 12.765625 5.710938 12.503906 C 4.222656 12.007812 3.15625 11.09375 2.542969 9.808594 C 1.765625 8.195312 1.765625 6.527344 2.542969 4.914062 C 3.570312 2.773438 5.941406 1.640625 8.457031 2.09375 Z M 10.777344 9.847656 L 11.871094 10.394531 L 11.515625 10.824219 C 11.316406 11.054688 11.105469 11.285156 11.027344 11.324219 C 10.914062 11.390625 10.355469 10.632812 9.605469 9.394531 C 9.492188 9.203125 9.636719 9.261719 10.777344 9.847656 Z M 26.335938 10.574219 C 28.683594 11.132812 30.363281 13.28125 30.375 15.746094 C 30.375 16.488281 30.191406 17.53125 30.058594 17.53125 C 30 17.53125 28.898438 16.976562 27.601562 16.304688 C 26.304688 15.632812 24.175781 14.566406 22.871094 13.941406 C 20.855469 12.972656 20.507812 12.78125 20.585938 12.648438 C 20.632812 12.5625 20.921875 12.234375 21.230469 11.925781 C 21.851562 11.3125 22.996094 10.691406 23.800781 10.546875 C 24.539062 10.402344 25.652344 10.421875 26.335938 10.574219 Z M 15.84375 12.273438 C 18.226562 13.414062 18.484375 13.558594 18.425781 13.734375 C 18.03125 15.085938 18.015625 16.476562 18.367188 17.628906 C 18.484375 17.972656 18.570312 18.261719 18.570312 18.273438 C 18.570312 18.308594 16.371094 19.453125 16.285156 19.453125 C 16.21875 19.453125 13.636719 15.605469 11.902344 12.898438 L 11.726562 12.628906 L 12.304688 12.035156 C 12.621094 11.707031 12.929688 11.34375 12.996094 11.21875 C 13.054688 11.101562 13.128906 11.007812 13.160156 11.007812 C 13.1875 11.007812 14.394531 11.574219 15.84375 12.273438 Z M 22.6875 15.535156 C 23.023438 15.691406 23.28125 15.835938 23.261719 15.84375 C 23.242188 15.863281 22.496094 16.257812 21.613281 16.71875 C 20.625 17.226562 19.960938 17.523438 19.90625 17.464844 C 19.730469 17.292969 19.605469 16.226562 19.664062 15.421875 C 19.75 14.050781 19.65625 14.105469 20.949219 14.722656 C 21.574219 15.007812 22.351562 15.382812 22.6875 15.535156 Z M 27.332031 17.878906 C 28.398438 18.433594 29.308594 18.925781 29.347656 18.972656 C 29.394531 19.011719 29.15625 19.308594 28.839844 19.632812 C 27.753906 20.71875 26.210938 21.265625 24.570312 21.152344 C 23.753906 21.09375 22.773438 20.816406 22.785156 20.652344 C 22.8125 20.480469 25.210938 16.859375 25.308594 16.859375 C 25.355469 16.859375 26.277344 17.320312 27.332031 17.878906 Z M 22.113281 18.800781 C 21.796875 19.289062 21.496094 19.730469 21.449219 19.777344 C 21.402344 19.828125 21.199219 19.671875 20.980469 19.441406 C 20.769531 19.210938 20.625 18.992188 20.664062 18.960938 C 20.769531 18.867188 22.542969 17.917969 22.621094 17.917969 C 22.660156 17.917969 22.429688 18.320312 22.113281 18.800781 Z M 8.457031 19.75 C 9.367188 19.914062 10.472656 20.496094 11.160156 21.1875 C 11.488281 21.515625 11.726562 21.824219 11.691406 21.859375 C 11.640625 21.898438 10.519531 22.503906 9.183594 23.195312 C 7.851562 23.894531 6.71875 24.539062 6.671875 24.632812 C 6.527344 24.902344 6.554688 25.269531 6.746094 25.480469 C 6.832031 25.585938 7.964844 26.21875 9.261719 26.890625 C 10.558594 27.550781 11.652344 28.136719 11.691406 28.175781 C 11.796875 28.28125 10.796875 29.269531 10.257812 29.585938 C 7.523438 31.1875 4.003906 30.285156 2.601562 27.617188 C 1.488281 25.507812 1.871094 22.839844 3.523438 21.199219 C 4.769531 19.941406 6.585938 19.414062 8.457031 19.75 Z M 19.953125 20.382812 L 20.605469 21.082031 L 19.808594 22.332031 C 19.367188 23.011719 18.984375 23.578125 18.953125 23.578125 C 18.886719 23.570312 17.132812 20.910156 17.132812 20.824219 C 17.132812 20.746094 19.148438 19.664062 19.253906 19.683594 C 19.28125 19.691406 19.597656 20.007812 19.953125 20.382812 Z M 33.398438 21.046875 C 34.875 21.8125 36.113281 22.476562 36.152344 22.503906 C 36.191406 22.542969 36.132812 22.859375 36.015625 23.195312 C 35.71875 24.078125 35.71875 25.9375 36.015625 26.839844 C 36.132812 27.175781 36.1875 27.492188 36.152344 27.523438 C 36.113281 27.5625 34.882812 28.214844 33.414062 28.980469 L 30.746094 30.371094 L 29.863281 29.480469 C 28.886719 28.5 28.128906 28.023438 26.9375 27.628906 C 26.304688 27.417969 26.027344 27.386719 25 27.378906 C 23.886719 27.378906 23.734375 27.40625 22.9375 27.683594 C 22.464844 27.859375 22.023438 28.011719 21.957031 28.023438 C 21.851562 28.039062 19.914062 25.199219 19.914062 25.019531 C 19.914062 24.835938 21.851562 21.996094 21.957031 22.015625 C 22.023438 22.023438 22.464844 22.175781 22.9375 22.351562 C 23.742188 22.636719 23.875 22.65625 25 22.65625 C 26.027344 22.648438 26.304688 22.609375 26.96875 22.398438 C 28.128906 22.015625 28.875 21.535156 29.847656 20.546875 C 30.324219 20.058594 30.710938 19.664062 30.710938 19.652344 C 30.710938 19.644531 31.917969 20.277344 33.398438 21.046875 Z M 43.992188 19.789062 C 46.351562 20.34375 48.023438 22.496094 48.03125 24.980469 C 48.03125 25.882812 47.859375 26.628906 47.457031 27.484375 C 45.910156 30.691406 41.382812 31.398438 38.808594 28.828125 C 38.492188 28.511719 38.261719 28.234375 38.289062 28.195312 C 38.320312 28.164062 39.453125 27.550781 40.816406 26.839844 C 43.464844 25.441406 43.578125 25.351562 43.367188 24.75 C 43.289062 24.527344 42.878906 24.277344 40.816406 23.195312 C 39.460938 22.484375 38.320312 21.871094 38.289062 21.839844 C 38.261719 21.804688 38.492188 21.523438 38.808594 21.207031 C 39.453125 20.566406 40.441406 20 41.277344 19.796875 C 42.023438 19.613281 43.234375 19.613281 43.992188 19.789062 Z M 16.851562 23.214844 C 17.449219 24.125 17.9375 24.941406 17.9375 25.019531 C 17.9375 25.199219 15.796875 28.472656 15.671875 28.472656 C 15.625 28.472656 15.171875 28.253906 14.675781 27.984375 C 14.03125 27.636719 13.773438 27.445312 13.808594 27.347656 C 14.117188 26.570312 14.195312 26.035156 14.195312 24.96875 C 14.183594 24.066406 14.136719 23.683594 13.984375 23.195312 C 13.867188 22.859375 13.800781 22.558594 13.828125 22.53125 C 13.933594 22.417969 15.558594 21.5625 15.652344 21.5625 C 15.71875 21.5625 16.257812 22.3125 16.851562 23.214844 Z M 12.609375 23.894531 C 12.785156 24.914062 12.6875 26.429688 12.4375 26.679688 C 12.351562 26.765625 9.070312 25.132812 9.070312 25.019531 C 9.070312 24.949219 12.257812 23.289062 12.390625 23.289062 C 12.457031 23.289062 12.554688 23.558594 12.609375 23.894531 Z M 39.308594 24.125 C 40.199219 24.59375 40.929688 24.988281 40.929688 25.019531 C 40.929688 25.085938 37.726562 26.746094 37.601562 26.746094 C 37.457031 26.746094 37.285156 25.765625 37.285156 25.019531 C 37.285156 24.261719 37.464844 23.289062 37.601562 23.289062 C 37.648438 23.289062 38.425781 23.664062 39.308594 24.125 Z M 19.796875 27.703125 L 20.605469 28.953125 L 19.941406 29.664062 L 19.289062 30.363281 L 18.214844 29.824219 C 17.621094 29.539062 17.128906 29.257812 17.128906 29.222656 C 17.128906 29.125 18.886719 26.46875 18.953125 26.457031 C 18.984375 26.457031 19.367188 27.023438 19.796875 27.703125 Z M 26.277344 29 C 27.179688 29.191406 28.167969 29.738281 28.859375 30.421875 C 29.164062 30.738281 29.394531 31.027344 29.347656 31.0625 C 29.175781 31.226562 25.363281 33.183594 25.277344 33.15625 C 25.097656 33.097656 22.714844 29.382812 22.800781 29.296875 C 22.964844 29.125 24.195312 28.867188 24.902344 28.867188 C 25.296875 28.867188 25.910156 28.925781 26.277344 29 Z M 22.09375 31.1875 C 22.417969 31.695312 22.667969 32.121094 22.628906 32.121094 C 22.601562 32.121094 22.121094 31.878906 21.574219 31.582031 L 20.585938 31.054688 L 20.929688 30.621094 C 21.125 30.382812 21.335938 30.210938 21.382812 30.226562 C 21.441406 30.246094 21.757812 30.679688 22.09375 31.1875 Z M 17.484375 31.167969 C 18.261719 31.582031 18.570312 31.792969 18.53125 31.890625 C 18.101562 33.023438 17.996094 34.855469 18.3125 35.902344 C 18.40625 36.207031 18.464844 36.476562 18.445312 36.496094 C 18.425781 36.515625 17.226562 37.101562 15.785156 37.792969 L 13.175781 39.039062 L 13.023438 38.820312 C 12.9375 38.695312 12.609375 38.328125 12.304688 38.003906 L 11.726562 37.398438 L 11.96875 37.042969 C 15.257812 32.003906 16.207031 30.585938 16.285156 30.585938 C 16.34375 30.585938 16.882812 30.84375 17.484375 31.167969 Z M 21.652344 33.339844 C 22.535156 33.796875 23.242188 34.191406 23.226562 34.210938 C 23.207031 34.230469 22.449219 34.605469 21.527344 35.046875 C 19.605469 35.96875 19.742188 35.996094 19.65625 34.605469 C 19.597656 33.730469 19.761719 32.503906 19.941406 32.503906 C 19.992188 32.503906 20.769531 32.878906 21.652344 33.339844 Z M 30.277344 33.195312 C 30.585938 35.007812 30.039062 36.859375 28.839844 38.070312 C 27.640625 39.257812 25.765625 39.824219 23.984375 39.519531 C 23.042969 39.355469 21.890625 38.769531 21.226562 38.128906 C 20.308594 37.214844 20.152344 37.398438 22.964844 36.042969 C 24.320312 35.390625 26.449219 34.335938 27.6875 33.683594 C 28.925781 33.039062 29.988281 32.503906 30.058594 32.503906 C 30.113281 32.503906 30.210938 32.800781 30.277344 33.195312 Z M 9.070312 37.558594 C 9.359375 37.664062 9.585938 37.789062 9.570312 37.839844 C 9.558594 37.886719 8.878906 38.941406 8.0625 40.191406 C 7.074219 41.695312 6.574219 42.539062 6.574219 42.714844 C 6.574219 43.03125 6.96875 43.445312 7.273438 43.445312 C 7.398438 43.445312 8.617188 42.90625 9.992188 42.253906 C 12.839844 40.882812 12.589844 40.882812 12.6875 42.253906 C 12.917969 45.496094 10.539062 48.058594 7.304688 48.050781 C 4.300781 48.039062 1.96875 45.6875 1.96875 42.675781 C 1.96875 41.753906 2.121094 41.121094 2.554688 40.210938 C 3.195312 38.855469 4.484375 37.820312 6.019531 37.433594 C 6.746094 37.253906 8.398438 37.320312 9.070312 37.558594 Z M 11.46875 39.144531 L 11.863281 39.644531 L 11.019531 40.074219 C 9.828125 40.671875 9.511719 40.792969 9.609375 40.640625 C 10.117188 39.796875 10.914062 38.644531 10.980469 38.644531 C 11.027344 38.644531 11.246094 38.867188 11.46875 39.144531 Z M 11.46875 39.144531 "/>
</g>
</svg>
