<?xml version="1.0" encoding="UTF-8"?>
<svg xmlns="http://www.w3.org/2000/svg" xmlns:xlink="http://www.w3.org/1999/xlink" width="50pt" height="50pt" viewBox="0 0 50 50" version="1.1">
<g id="surface1">
<path style=" stroke:none;fill-rule:nonzero;fill:rgb(0%,0%,0%);fill-opacity:1;" d="M 47.125 3.859375 L 2.875 3.859375 C 1.558594 3.859375 0.5 4.925781 0.5 6.234375 L 0.5 34 C 0.5 35.308594 1.558594 36.375 2.875 36.375 L 19.425781 36.375 L 19.425781 41.75 L 12.984375 41.75 C 11.773438 41.75 10.789062 42.734375 10.789062 43.945312 C 10.789062 45.15625 11.773438 46.140625 12.984375 46.140625 L 37.019531 46.140625 C 38.230469 46.140625 39.214844 45.15625 39.214844 43.945312 C 39.214844 42.734375 38.230469 41.75 37.019531 41.75 L 30.574219 41.75 L 30.574219 36.371094 L 47.125 36.371094 C 48.433594 36.371094 49.5 35.308594 49.5 33.996094 L 49.5 6.234375 C 49.5 4.925781 48.441406 3.859375 47.125 3.859375 Z M 45.941406 32.808594 L 4.058594 32.808594 L 4.058594 7.421875 L 45.941406 7.421875 Z M 45.941406 32.808594 "/>
<path style=" stroke:none;fill-rule:nonzero;fill:rgb(0%,0%,0%);fill-opacity:1;" d="M 11.726562 21.453125 L 19.210938 24.933594 C 19.40625 25.023438 19.609375 25.070312 19.820312 25.070312 C 20.09375 25.070312 20.371094 24.988281 20.605469 24.839844 C 21.023438 24.570312 21.273438 24.113281 21.273438 23.613281 L 21.273438 23.574219 C 21.273438 23.011719 20.945312 22.496094 20.433594 22.253906 L 15.75 20.085938 L 20.429688 17.910156 C 20.941406 17.671875 21.269531 17.15625 21.269531 16.589844 L 21.269531 16.550781 C 21.269531 16.050781 21.019531 15.589844 20.601562 15.324219 C 20.363281 15.175781 20.09375 15.101562 19.816406 15.101562 C 19.605469 15.101562 19.390625 15.144531 19.203125 15.234375 L 11.71875 18.714844 C 11.210938 18.953125 10.878906 19.46875 10.878906 20.035156 L 10.878906 20.140625 C 10.878906 20.699219 11.210938 21.21875 11.726562 21.453125 Z M 11.726562 21.453125 "/>
<path style=" stroke:none;fill-rule:nonzero;fill:rgb(0%,0%,0%);fill-opacity:1;" d="M 21.339844 28.546875 C 21.613281 28.921875 22.050781 29.140625 22.515625 29.140625 L 22.550781 29.140625 C 23.183594 29.140625 23.738281 28.734375 23.933594 28.128906 L 28.863281 12.855469 C 29.003906 12.414062 28.929688 11.925781 28.65625 11.554688 C 28.378906 11.179688 27.945312 10.960938 27.480469 10.960938 L 27.445312 10.960938 C 26.808594 10.960938 26.253906 11.363281 26.058594 11.96875 L 21.128906 27.25 C 20.988281 27.683594 21.070312 28.175781 21.339844 28.546875 Z M 21.339844 28.546875 "/>
<path style=" stroke:none;fill-rule:nonzero;fill:rgb(0%,0%,0%);fill-opacity:1;" d="M 28.726562 16.589844 C 28.726562 17.15625 29.054688 17.671875 29.566406 17.910156 L 34.246094 20.085938 L 29.566406 22.261719 C 29.054688 22.5 28.726562 23.015625 28.726562 23.578125 L 28.726562 23.621094 C 28.726562 24.121094 28.976562 24.574219 29.398438 24.84375 C 29.636719 24.996094 29.90625 25.074219 30.179688 25.074219 C 30.394531 25.074219 30.601562 25.03125 30.796875 24.941406 L 38.28125 21.460938 C 38.789062 21.21875 39.121094 20.703125 39.121094 20.140625 L 39.121094 20.035156 C 39.121094 19.46875 38.789062 18.953125 38.28125 18.714844 L 30.796875 15.234375 C 30.605469 15.144531 30.394531 15.101562 30.183594 15.101562 C 29.90625 15.101562 29.636719 15.179688 29.398438 15.324219 C 28.980469 15.59375 28.726562 16.050781 28.726562 16.550781 Z M 28.726562 16.589844 "/>
</g>
</svg>
