<?xml version="1.0" encoding="UTF-8"?>
<svg xmlns="http://www.w3.org/2000/svg" xmlns:xlink="http://www.w3.org/1999/xlink" width="50pt" height="50pt" viewBox="0 0 50 50" version="1.1">
<g id="surface1">
<path style=" stroke:none;fill-rule:nonzero;fill:rgb(0%,0%,0%);fill-opacity:1;" d="M 45.605469 5.957031 L 42.675781 5.957031 C 41.867188 5.957031 41.210938 6.613281 41.210938 7.421875 L 41.210938 11.816406 L 29.394531 11.816406 L 29.394531 4.394531 C 29.394531 1.972656 27.421875 0 25 0 C 22.578125 0 20.605469 1.972656 20.605469 4.394531 L 20.605469 11.816406 L 8.789062 11.816406 L 8.789062 7.421875 C 8.789062 6.613281 8.132812 5.957031 7.324219 5.957031 L 4.394531 5.957031 C 1.972656 5.957031 0 7.929688 0 10.351562 L 0 45.605469 C 0 48.027344 1.972656 50 4.394531 50 L 45.605469 50 C 48.027344 50 50 48.027344 50 45.605469 L 50 10.351562 C 50 7.929688 48.027344 5.957031 45.605469 5.957031 Z M 44.140625 8.886719 L 45.605469 8.886719 C 46.414062 8.886719 47.070312 9.542969 47.070312 10.351562 L 47.070312 41.460938 C 46.613281 41.300781 46.117188 41.210938 45.605469 41.210938 L 44.140625 41.210938 Z M 23.535156 4.394531 C 23.535156 3.585938 24.191406 2.929688 25 2.929688 C 25.808594 2.929688 26.464844 3.585938 26.464844 4.394531 L 26.464844 5.859375 L 23.535156 5.859375 Z M 25 32.125 L 18.851562 28.027344 L 25 23.929688 L 31.148438 28.027344 Z M 32.324219 30.765625 L 32.324219 36.03125 L 26.464844 39.9375 L 26.464844 34.671875 Z M 23.535156 34.671875 L 23.535156 39.9375 L 17.675781 36.03125 L 17.675781 30.765625 Z M 23.535156 8.789062 L 26.464844 8.789062 L 26.464844 16.101562 L 25 18.957031 L 23.535156 16.101562 Z M 2.929688 10.351562 C 2.929688 9.542969 3.585938 8.886719 4.394531 8.886719 L 5.859375 8.886719 L 5.859375 41.210938 L 4.394531 41.210938 C 3.882812 41.210938 3.386719 41.300781 2.929688 41.460938 Z M 45.605469 47.070312 L 4.394531 47.070312 C 3.585938 47.070312 2.929688 46.414062 2.929688 45.605469 C 2.929688 44.796875 3.585938 44.140625 4.394531 44.140625 L 7.324219 44.140625 C 8.132812 44.140625 8.789062 43.484375 8.789062 42.675781 L 8.789062 14.746094 L 20.605469 14.746094 L 20.605469 16.453125 C 20.605469 16.6875 20.660156 16.917969 20.765625 17.125 L 23.101562 21.675781 L 15.398438 26.808594 C 15.390625 26.816406 15.382812 26.820312 15.371094 26.828125 C 14.972656 27.105469 14.746094 27.5625 14.746094 28.027344 L 14.746094 36.816406 C 14.746094 37.304688 14.992188 37.765625 15.398438 38.035156 L 24.1875 43.894531 C 24.191406 43.898438 24.199219 43.902344 24.203125 43.90625 C 24.683594 44.214844 25.308594 44.222656 25.796875 43.90625 C 25.800781 43.902344 25.808594 43.898438 25.8125 43.894531 L 34.601562 38.035156 C 35.007812 37.765625 35.253906 37.304688 35.253906 36.816406 L 35.253906 28.027344 C 35.253906 27.523438 34.992188 27.070312 34.601562 26.808594 L 26.898438 21.675781 L 29.234375 17.125 C 29.339844 16.917969 29.394531 16.6875 29.394531 16.453125 L 29.394531 14.746094 L 41.210938 14.746094 L 41.210938 42.675781 C 41.210938 43.484375 41.867188 44.140625 42.675781 44.140625 L 45.605469 44.140625 C 46.414062 44.140625 47.070312 44.796875 47.070312 45.605469 C 47.070312 46.414062 46.414062 47.070312 45.605469 47.070312 Z M 45.605469 47.070312 "/>
</g>
</svg>
