<?xml version="1.0" encoding="UTF-8"?>
<svg xmlns="http://www.w3.org/2000/svg" xmlns:xlink="http://www.w3.org/1999/xlink" width="50pt" height="50pt" viewBox="0 0 50 50" version="1.1">
<g id="surface1">
<path style=" stroke:none;fill-rule:nonzero;fill:rgb(0%,0%,0%);fill-opacity:1;" d="M 47.269531 4.421875 L 2.996094 4.421875 C 1.75 4.421875 0.5 5.664062 0.5 6.914062 L 0.5 34.976562 C 0.5 36.21875 1.746094 37.46875 2.996094 37.46875 L 46.960938 37.46875 C 48.203125 37.46875 49.453125 36.226562 49.453125 34.976562 L 49.453125 6.914062 C 49.765625 5.671875 48.515625 4.421875 47.269531 4.421875 Z M 46.644531 30.300781 L 3.621094 30.300781 L 3.621094 7.539062 L 46.960938 7.539062 L 46.960938 30.300781 Z M 46.644531 30.300781 "/>
<path style=" stroke:none;fill-rule:nonzero;fill:rgb(0%,0%,0%);fill-opacity:1;" d="M 12.660156 12.839844 C 12.660156 14.390625 13.914062 15.644531 15.464844 15.644531 C 17.015625 15.644531 18.269531 14.390625 18.269531 12.839844 C 18.269531 11.289062 17.015625 10.035156 15.464844 10.035156 C 13.914062 10.035156 12.660156 11.289062 12.660156 12.839844 Z M 12.660156 12.839844 "/>
<path style=" stroke:none;fill-rule:nonzero;fill:rgb(0%,0%,0%);fill-opacity:1;" d="M 26.691406 19.074219 L 38.539062 19.074219 L 38.539062 27.179688 L 26.691406 27.179688 Z M 26.691406 19.074219 "/>
<path style=" stroke:none;fill-rule:nonzero;fill:rgb(0%,0%,0%);fill-opacity:1;" d="M 26.691406 11.28125 L 38.539062 11.28125 L 38.539062 12.214844 L 26.691406 12.214844 Z M 26.691406 11.28125 "/>
<path style=" stroke:none;fill-rule:nonzero;fill:rgb(0%,0%,0%);fill-opacity:1;" d="M 26.691406 12.839844 L 38.539062 12.839844 L 38.539062 13.773438 L 26.691406 13.773438 Z M 26.691406 12.839844 "/>
<path style=" stroke:none;fill-rule:nonzero;fill:rgb(0%,0%,0%);fill-opacity:1;" d="M 12.035156 19.074219 L 23.886719 19.074219 L 23.886719 20.011719 L 12.035156 20.011719 Z M 12.035156 19.074219 "/>
<path style=" stroke:none;fill-rule:nonzero;fill:rgb(0%,0%,0%);fill-opacity:1;" d="M 12.035156 20.945312 L 23.886719 20.945312 L 23.886719 21.878906 L 12.035156 21.878906 Z M 12.035156 20.945312 "/>
<path style=" stroke:none;fill-rule:nonzero;fill:rgb(0%,0%,0%);fill-opacity:1;" d="M 12.035156 22.816406 L 23.886719 22.816406 L 23.886719 23.75 L 12.035156 23.75 Z M 12.035156 22.816406 "/>
<path style=" stroke:none;fill-rule:nonzero;fill:rgb(0%,0%,0%);fill-opacity:1;" d="M 12.035156 24.375 L 23.886719 24.375 L 23.886719 25.308594 L 12.035156 25.308594 Z M 12.035156 24.375 "/>
<path style=" stroke:none;fill-rule:nonzero;fill:rgb(0%,0%,0%);fill-opacity:1;" d="M 12.035156 26.246094 L 23.886719 26.246094 L 23.886719 27.179688 L 12.035156 27.179688 Z M 12.035156 26.246094 "/>
<path style=" stroke:none;fill-rule:nonzero;fill:rgb(0%,0%,0%);fill-opacity:1;" d="M 30.121094 44.644531 L 20.144531 44.644531 L 20.769531 36.226562 L 29.5 36.226562 Z M 30.121094 44.644531 "/>
<path style=" stroke:none;fill-rule:nonzero;fill:rgb(0%,0%,0%);fill-opacity:1;" d="M 14.53125 45.578125 C 14.53125 44.335938 15.464844 42.773438 16.714844 42.773438 L 33.238281 42.773438 C 34.484375 42.773438 35.425781 44.335938 35.425781 45.578125 "/>
</g>
</svg>
